<svg width="81" height="112" viewBox="0 0 81 112" fill="none" xmlns="http://www.w3.org/2000/svg">
<path d="M79.8382 108.129L65.0072 73.7243C66.892 71.8895 68.0724 69.3322 68.0724 66.4897C68.0724 61.6223 64.6169 57.5534 60.0286 56.6028V30.8302H62.2466C65.4927 30.8302 68.139 28.1873 68.139 24.9455V21.1999C68.139 17.9581 65.4927 15.3153 62.2466 15.3153H55.0691C49.4622 7.74794 37.8677 0 28.634 0C27.4917 0 26.5684 0.922148 26.5684 2.06295V44.073C26.5684 45.2138 27.4917 46.1359 28.634 46.1359C37.8773 46.1359 49.4717 38.388 55.0691 30.8302H55.8972V56.6028C51.309 57.5534 47.8535 61.6318 47.8535 66.4897C47.8535 69.3227 49.0339 71.88 50.9187 73.7243L36.0876 108.129C35.6402 109.175 36.1257 110.392 37.1728 110.838C37.4394 110.952 37.7154 111.009 37.9915 111.009C38.7911 111.009 39.5527 110.544 39.8953 109.764L49.0434 88.5262C50.4522 89.1061 52.6131 89.5814 55.9068 89.724V108.947C55.9068 110.087 56.8301 111.009 57.9725 111.009C59.1148 111.009 60.0381 110.087 60.0381 108.947V89.724C63.3223 89.5814 65.4832 89.0966 66.9015 88.5262L76.0496 109.764C76.3827 110.544 77.1443 111.009 77.9534 111.009C78.2295 111.009 78.5055 110.952 78.7721 110.838C79.8192 110.392 80.3047 109.175 79.8573 108.129H79.8382ZM54.0029 26.6948C53.3175 26.6948 52.6797 27.037 52.2894 27.5979C48.0438 33.8533 38.5531 40.7646 30.6902 41.8484V4.27801C38.5341 5.37127 48.0343 12.2826 52.2894 18.538C52.6702 19.1084 53.3175 19.4412 54.0029 19.4412H62.2371C63.208 19.4412 63.9982 20.2302 63.9982 21.1999V24.9455C63.9982 25.9152 63.208 26.7043 62.2371 26.7043H54.0029V26.6948ZM57.9629 60.51C61.2566 60.51 63.941 63.1909 63.941 66.4897C63.941 69.7885 61.2566 72.4599 57.9629 72.4599C54.6693 72.4599 51.9848 69.779 51.9848 66.4897C51.9848 63.2004 54.6693 60.51 57.9629 60.51ZM54.4503 75.9489C54.9168 76.12 55.3927 76.2721 55.8972 76.3767V85.5981C53.0034 85.4555 51.4517 85.0373 50.6712 84.7235L54.4503 75.9489ZM60.0286 85.5981V76.3767C60.5236 76.2721 61.0091 76.12 61.4755 75.9489L65.2547 84.7235C64.4741 85.0373 62.9225 85.4555 60.0286 85.5981Z" fill="#333333"/>
<path d="M21.0376 25.1357H2.06568C0.92337 25.1357 0 24.2135 0 23.0727C0 21.9319 0.92337 21.0098 2.06568 21.0098H21.0376C22.1799 21.0098 23.1033 21.9319 23.1033 23.0727C23.1033 24.2135 22.1799 25.1357 21.0376 25.1357Z" fill="#333333"/>
<path d="M21.0377 15.211C20.7141 15.211 20.3809 15.135 20.0668 14.9639L8.31047 8.70847C7.30142 8.1761 6.92065 6.92122 7.45373 5.91351C7.98681 4.9058 9.24336 4.52553 10.2524 5.05791L22.0087 11.3133C23.0178 11.8457 23.3985 13.1006 22.8654 14.1083C22.4942 14.8023 21.7802 15.2015 21.0377 15.2015V15.211Z" fill="#333333"/>
<path d="M9.28143 41.307C8.53893 41.307 7.82498 40.9077 7.45373 40.2137C6.92065 39.206 7.30142 37.9607 8.31047 37.4188L20.0668 31.1634C21.0663 30.631 22.3228 31.0113 22.8654 32.019C23.3985 33.0267 23.0178 34.2721 22.0087 34.8139L10.2524 41.0693C9.93826 41.231 9.61461 41.3165 9.28143 41.3165V41.307Z" fill="#333333"/>
</svg>
