<svg width="99" height="83" viewBox="0 0 99 83" fill="none" xmlns="http://www.w3.org/2000/svg">
<path d="M41.6264 58.2695H18.1307C17.5662 58.2695 17.1099 58.7258 17.1099 59.2904V72.9099C17.1099 73.4744 17.5662 73.9307 18.1307 73.9307H41.6264C42.191 73.9307 42.6473 73.4744 42.6473 72.9099V59.2904C42.6473 58.7258 42.191 58.2695 41.6264 58.2695ZM40.6055 71.889H19.1516V60.3113H40.6133V71.889H40.6055Z" fill="#1A1A1A" stroke="#1A1A1A" stroke-width="1.25" stroke-miterlimit="10"/>
<path d="M81.2394 58.2695H57.7438C57.1792 58.2695 56.7229 58.7258 56.7229 59.2904V72.9099C56.7229 73.4744 57.1792 73.9307 57.7438 73.9307H81.2394C81.804 73.9307 82.2603 73.4744 82.2603 72.9099V59.2904C82.2603 58.7258 81.804 58.2695 81.2394 58.2695ZM80.2186 71.889H58.7569V60.3113H80.2186V71.889Z" fill="#1A1A1A" stroke="#1A1A1A" stroke-width="1.25" stroke-miterlimit="10"/>
<path d="M91.9046 31.549H90.4738V18.0533C90.4738 15.9883 88.7955 14.3101 86.7306 14.3101H85.8566C85.8566 14.3101 85.8257 14.3101 85.8102 14.3101H70.7136C68.9889 10.7679 66.5218 7.76718 63.5056 5.56302C63.5056 3.04176 61.4716 1 58.9735 1H41.6031C39.105 1 37.071 3.04176 37.071 5.55528V5.58622C34.0935 7.75945 31.6263 10.7525 29.863 14.3024H13.5599C13.5599 14.3024 13.529 14.3024 13.5135 14.3024H12.6396C10.5746 14.3024 8.89634 15.9806 8.89634 18.0456V31.5335H7.46556C3.90022 31.5335 1 34.4338 1 37.9991V63.3664C1 65.4313 2.67826 67.1096 4.74322 67.1096H8.89634V70.4197C8.89634 76.9858 14.2405 82.33 20.8066 82.33H78.5635C85.1296 82.33 90.4738 76.9858 90.4738 70.4197V67.1096H94.6269C96.6919 67.1096 98.3701 65.4313 98.3701 63.3664V38.0068C98.3701 34.4415 95.4699 31.5413 91.9046 31.5413V31.549ZM91.9046 33.5908C94.3407 33.5908 96.3284 35.5706 96.3284 38.0146V48.3162H90.4738V33.5908H91.9046ZM72.4073 43.436C72.3841 43.2736 72.2991 43.1422 72.2527 42.9875C72.1985 42.8173 72.1598 42.6549 72.0825 42.5002C71.9665 42.2682 71.8118 42.0671 71.6494 41.8583C71.5489 41.7346 71.4638 41.6031 71.3478 41.4871C71.139 41.2937 70.8992 41.1545 70.6517 41.0153C70.528 40.9457 70.4275 40.8606 70.296 40.8065C69.9015 40.6441 69.4684 40.5513 69.0199 40.5513H57.0246V37.4887C57.0246 36.9241 56.5683 36.4678 56.0037 36.4678H43.3742C42.8096 36.4678 42.3533 36.9241 42.3533 37.4887V40.5513H30.358C29.9017 40.5513 29.4763 40.6518 29.0819 40.8065C28.9504 40.8606 28.8499 40.9457 28.7261 41.0153C28.4786 41.1545 28.2311 41.2937 28.0301 41.4871C27.9141 41.5954 27.829 41.7268 27.7284 41.8583C27.566 42.0594 27.4114 42.2605 27.2953 42.5002C27.218 42.6549 27.1716 42.8173 27.1252 42.9875C27.0788 43.1422 26.9937 43.2736 26.9705 43.436H23.6759C20.3812 43.436 17.4965 41.5026 16.8236 38.8498L11.7888 18.6256C11.6573 18.0765 11.7811 17.5042 12.1369 17.0556C12.4849 16.6148 12.9953 16.3673 13.5522 16.3596H85.8257C86.3825 16.3596 86.9007 16.6148 87.241 17.0556C87.5968 17.5042 87.7205 18.0765 87.589 18.6256L82.5542 38.8421C81.8814 41.5026 79.0044 43.436 75.702 43.436H72.4073ZM28.9504 44.4569V43.9929C28.9504 43.2195 29.5769 42.593 30.3502 42.593H42.3456V46.3208H30.3502C29.5769 46.3208 28.9504 45.6789 28.9504 44.89V44.4569ZM44.3873 47.3417V38.5095H54.9751V50.3734H44.3873V47.3339V47.3417ZM57.0168 42.593H69.0121C69.7855 42.593 70.412 43.2195 70.412 43.9929V44.89C70.412 45.6789 69.7855 46.3208 69.0121 46.3208H57.0168V42.593ZM41.5954 3.03402H58.9658C60.1955 3.03402 61.2241 3.93889 61.4252 5.12992H39.1437C39.3448 3.93889 40.3657 3.03402 41.6031 3.03402H41.5954ZM38.293 7.17167H62.2991C64.7971 8.99688 66.9008 11.4408 68.4476 14.3024H32.1213C33.7068 11.4099 35.8181 8.97368 38.293 7.17167ZM3.03402 38.0068C3.03402 35.5629 5.02164 33.583 7.45783 33.583H8.8886V48.3084H3.03402V38.0068ZM4.73549 65.0756C3.79968 65.0756 3.03402 64.3099 3.03402 63.3741V50.3502H8.8886V65.0756H4.73549ZM88.4243 70.4274C88.4243 75.8721 84.0005 80.2959 78.5558 80.2959H20.8066C15.3619 80.2959 10.9381 75.8721 10.9381 70.4274V23.7068L14.8283 39.3448C15.7409 42.9565 19.3681 45.4778 23.6604 45.4778H27.0324C27.3185 47.1019 28.6642 48.3626 30.358 48.3626H42.3533V51.402C42.3533 51.9666 42.8096 52.4229 43.3742 52.4229H56.0037C56.5683 52.4229 57.0246 51.9666 57.0246 51.402V48.3626H69.0199C70.7136 48.3626 72.0593 47.1019 72.3455 45.4778H75.7175C80.002 45.4778 83.637 42.9565 84.5496 39.3448L88.4398 23.7068V70.4274H88.4243ZM96.3206 63.3741C96.3206 64.3099 95.555 65.0756 94.6192 65.0756H90.466V50.3502H96.3206V63.3741Z" fill="#1A1A1A" stroke="#1A1A1A" stroke-width="1.25" stroke-miterlimit="10"/>
</svg>
