<svg width="97" height="69" viewBox="0 0 97 69" fill="none" xmlns="http://www.w3.org/2000/svg">
<path d="M95.9992 36.733C95.9992 17.6345 91.0822 11.9627 87.2896 10.4402V9.05986C87.2896 6.85973 85.4939 5.06951 83.2871 5.06951H79.419C78.9994 3.00322 77.6485 0 75.19 0H44.6307C42.189 0 40.8381 2.99486 40.4185 5.06951H34.4191C33.7143 5.06951 33.1101 5.47105 32.808 6.05664H21.5979C21.2959 5.47105 20.6917 5.06951 19.9869 5.06951H10.5305C3.61644 5.06951 0 21.0058 0 36.733C0 52.4602 3.61644 68.4049 10.5305 68.4049H19.9869C20.6917 68.4049 21.2959 68.0033 21.5979 67.4177H32.808C33.1101 68.0033 33.7143 68.4049 34.4191 68.4049H80.7615C83.3543 68.4049 87.256 68.4049 87.2979 62.9589C93.1547 60.4242 96.0076 51.8244 96.0076 36.733H95.9992ZM32.9591 9.68727C34.3184 9.68727 36.5587 14.2047 37.8258 22.7124C37.5405 22.0766 36.9028 21.6332 36.1644 21.6332H28.7301C28.6378 21.0058 28.5455 20.3868 28.4364 19.7845C28.4364 19.7594 28.4364 19.7343 28.4281 19.7092C28.126 17.9691 27.782 16.3964 27.3876 14.991H33.4709C34.4778 14.991 35.2917 14.1796 35.2917 13.1757C35.2917 12.1718 34.4778 11.3604 33.4709 11.3604H26.1374C25.8772 10.7581 25.6087 10.1976 25.3235 9.69564H32.9591V9.68727ZM37.96 49.7749C37.8341 48.8965 37.079 48.2189 36.1644 48.2189H29.1748C29.4937 45.1487 29.6867 41.8862 29.737 38.5483H37.0202C37.8509 38.5483 38.5474 37.9878 38.7655 37.2182C38.7487 42.0284 38.4299 46.2195 37.9516 49.7665L37.96 49.7749ZM20.2974 63.7955C19.5925 63.7955 18.9884 64.197 18.6863 64.7826H15.6992C19.2317 59.1861 21.0609 47.9177 21.0609 36.7414C21.0609 25.565 19.2317 14.305 15.7076 8.70851H18.6947C18.9968 9.2941 19.6009 9.69564 20.3057 9.69564C21.0525 9.69564 23.3181 11.5946 24.8368 20.2697C24.8368 20.2948 24.8368 20.3199 24.8452 20.3449C25.6843 25.197 26.129 30.8771 26.129 36.7497C26.129 42.6223 25.6843 48.3025 24.8452 53.1545C24.8452 53.1796 24.8452 53.2047 24.8368 53.2215C23.3181 61.9049 21.0525 63.8038 20.3057 63.8038L20.2974 63.7955ZM37.0286 34.9177H29.7454C29.6951 31.5798 29.5021 28.3257 29.1832 25.2555H36.1728C37.0874 25.2555 37.8425 24.5779 37.9684 23.6995C38.4467 27.2465 38.7655 31.4376 38.7823 36.2478C38.5641 35.4865 37.8677 34.9177 37.037 34.9177H37.0286ZM3.64161 36.733C3.64161 18.5966 8.18943 8.70014 10.5305 8.70014C12.8715 8.70014 17.4193 18.5966 17.4193 36.733C17.4193 54.8695 12.8715 64.7742 10.5305 64.7742C8.18943 64.7742 3.64161 54.8778 3.64161 36.733ZM26.1374 62.1307H33.4709C34.4778 62.1307 35.2917 61.3193 35.2917 60.3154C35.2917 59.3116 34.4778 58.5001 33.4709 58.5001H27.3876C27.7736 57.0863 28.126 55.5136 28.4281 53.7736C28.4281 53.7485 28.428 53.7234 28.4364 53.6983C28.5371 53.096 28.6378 52.4853 28.7301 51.8579H36.1644C36.9112 51.8579 37.5405 51.4145 37.8258 50.7787C36.5587 59.2865 34.3184 63.8038 32.9591 63.8038H25.3235C25.6087 63.3019 25.8772 62.7414 26.1374 62.1391V62.1307ZM85.0156 59.9222C85.0156 59.9222 84.9401 59.9557 84.8982 59.9641C84.8394 59.9808 84.7723 60.0059 84.7136 60.031C84.6632 60.0561 84.6129 60.0812 84.5625 60.1146C84.5122 60.1481 84.4618 60.1732 84.4115 60.2067C84.3612 60.2401 84.3192 60.282 84.2773 60.3238C84.2353 60.3656 84.1933 60.3991 84.1514 60.4409C84.1094 60.4827 84.0759 60.5246 84.0423 60.5747C84.0088 60.6249 83.9668 60.6668 83.9332 60.717C83.8997 60.7672 83.8829 60.809 83.8577 60.8592C83.8325 60.9177 83.799 60.9679 83.7822 61.0265C83.7654 61.0767 83.7486 61.1352 83.7318 61.1938C83.7151 61.2524 83.6983 61.3025 83.6899 61.3611C83.6815 61.428 83.6731 61.4949 83.6731 61.5619C83.6731 61.6037 83.6647 61.6372 83.6647 61.679V62.8669C83.6647 64.7073 83.6647 64.7742 80.7615 64.7742H37.1964C40.7793 59.7215 42.4239 48.1854 42.4239 36.733C42.4239 25.2806 40.7793 13.7529 37.1964 8.70014H41.5429C42.8435 8.70014 43.9091 7.64609 43.9091 6.31597C43.9091 5.5798 44.4713 4.09911 44.8992 3.63064H74.9383C75.3746 4.09911 75.9368 5.5798 75.9368 6.31597V6.88482C75.9368 7.26964 76.0543 7.62099 76.264 7.91378C76.264 7.92215 76.2808 7.93051 76.2892 7.94725C76.3563 8.0309 76.4235 8.11456 76.499 8.18985C76.499 8.18985 76.499 8.18985 76.5074 8.19821C76.5325 8.22331 76.5577 8.23167 76.5829 8.25677C76.6416 8.30696 76.7087 8.36552 76.7759 8.40735C76.8346 8.44918 76.9017 8.47427 76.9689 8.50774C77.0024 8.52447 77.036 8.54956 77.0779 8.56629C77.1702 8.60812 77.2625 8.63322 77.3548 8.64995C77.3716 8.64995 77.3968 8.65831 77.4136 8.66668C77.4975 8.68341 77.5898 8.69178 77.6737 8.69178C77.7073 8.69178 77.7324 8.70014 77.766 8.70014H83.3039C83.5053 8.70014 83.6647 8.85909 83.6647 9.05986V11.8038C83.6647 11.8038 83.6647 11.8288 83.6647 11.8372C83.6647 11.9041 83.6731 11.9627 83.6815 12.0296C83.6815 12.0882 83.6899 12.1384 83.7067 12.1969C83.7235 12.2555 83.7402 12.3057 83.757 12.3642C83.7738 12.4228 83.7906 12.4814 83.8158 12.5316C83.8409 12.5817 83.8661 12.6236 83.8913 12.6738C83.9248 12.7323 83.95 12.7825 83.9836 12.8327C84.0171 12.8745 84.0507 12.9164 84.0843 12.9582C84.1262 13.0084 84.1598 13.0502 84.2017 13.092C84.2437 13.1339 84.2856 13.1673 84.336 13.2008C84.3863 13.2426 84.4283 13.2761 84.4786 13.3095C84.5206 13.343 84.5709 13.3597 84.6213 13.3848C84.68 13.4183 84.7304 13.4434 84.7891 13.4685C84.8394 13.4852 84.8898 13.502 84.9401 13.5187C85.0073 13.5354 85.0744 13.5605 85.1415 13.5689C85.1499 13.5689 85.1667 13.5689 85.1751 13.5772C88.6489 14.1377 92.3576 20.5123 92.3576 36.7163C92.3576 50.6449 89.8152 58.6674 85.0156 59.8971V59.9222Z" fill="#333333"/>
<path d="M14.8098 50.0593C15.5818 45.8179 16.0517 40.8405 16.0517 36.733C16.0517 36.5155 15.8167 15.2085 10.5389 15.2085C8.82719 15.2085 7.51822 16.5804 6.2596 23.4151C5.48765 27.648 5.01776 32.6339 5.01776 36.733C5.01776 36.9505 5.42891 58.2658 10.5305 58.2658C12.2422 58.2658 13.5596 56.8939 14.8098 50.0593ZM8.65937 36.733C8.65937 30.8018 9.6327 24.2182 10.5557 20.7632C11.4703 24.1596 12.4101 30.6512 12.4101 36.733C12.4101 42.8147 11.4619 49.0972 10.5473 52.5856C9.62431 49.0889 8.66776 42.5805 8.66776 36.733H8.65937Z" fill="#333333"/>
<path d="M82.7501 27.7147C82.6158 26.7192 81.7012 26.0249 80.7027 26.1504C79.7042 26.2842 79.0078 27.1961 79.1336 28.1916C79.4776 30.7514 79.6455 33.6626 79.6455 36.8415C79.6455 55.4715 73.839 57.7051 73.5957 57.7888C72.6475 58.0147 72.0434 58.9516 72.2448 59.9136C72.421 60.7753 73.1761 61.3692 74.0236 61.3692C74.1411 61.3692 74.267 61.3609 74.3928 61.3358C75.3074 61.1517 83.2871 58.893 83.2871 36.8415C83.2871 33.5037 83.1025 30.4335 82.7417 27.7147H82.7501Z" fill="#333333"/>
</svg>
