<svg width="104" height="120" viewBox="0 0 104 120" fill="none" xmlns="http://www.w3.org/2000/svg">
<g clip-path="url(#clip0_382_211)">
<path d="M102.96 114.15V112C102.96 109.49 100.92 107.45 98.41 107.45H19.68V72.4601H23.4C24.09 72.4601 24.64 71.9001 24.64 71.2201V64.2401H31V90.5101C31 91.2001 31.56 91.7501 32.24 91.7501H74.63C75.32 91.7501 75.87 91.1901 75.87 90.5101C75.87 89.8301 75.31 89.2701 74.63 89.2701H33.48V64.2401H35.86V71.2101C35.86 71.9001 36.42 72.4501 37.1 72.4501H40.35V79.4201C40.35 80.1101 40.91 80.6601 41.59 80.6601H56.75C57.44 80.6601 57.99 80.1001 57.99 79.4201V72.4501H61.24C61.93 72.4501 62.48 71.8901 62.48 71.2101V64.2401H74.63C75.32 64.2401 75.87 63.6801 75.87 63.0001V32.6701C75.87 32.1801 75.58 31.7401 75.14 31.5401L61.45 25.4101C61.29 25.3401 61.12 25.3001 60.94 25.3001H23.71C23.02 25.3001 22.47 25.8601 22.47 26.5401V33.5101H19.67V5.17012C19.67 2.66012 17.63 0.620117 15.12 0.620117H12.97C10.46 0.620117 8.42 2.66012 8.42 5.17012V33.5101H4.73C4.04 33.5101 3.49 34.0701 3.49 34.7501V71.2101C3.49 71.9001 4.05 72.4501 4.73 72.4501H8.42V107.44H5.17C2.66 107.44 0.619995 109.48 0.619995 111.99V114.14C0.619995 116.65 2.66 118.69 5.17 118.69H98.41C100.92 118.69 102.96 116.65 102.96 114.14V114.15ZM55.52 78.1801H42.84V72.4501H55.52V78.1801ZM60.01 69.9701H38.35V64.2401H60.01V69.9701ZM24.95 27.7901H60.68L73.39 33.4801V61.7601H24.95V27.7901ZM10.91 5.17012C10.91 4.01012 11.82 3.10012 12.98 3.10012H15.13C16.29 3.10012 17.2 4.01012 17.2 5.17012V33.5101H10.91V5.17012ZM5.98 35.9901H22.16V69.9701H5.98V36.0001V35.9901ZM17.2 72.4501V107.43H10.91V72.4501H17.2ZM100.48 114.14C100.48 115.28 99.55 116.21 98.41 116.21H5.17C4.03 116.21 3.1 115.28 3.1 114.14V111.99C3.1 110.85 4.03 109.92 5.17 109.92H98.41C99.55 109.92 100.48 110.85 100.48 111.99V114.14Z" fill="#1A1A1A" stroke="#1A1A1A" stroke-width="1.25" stroke-miterlimit="10"/>
<path d="M20.68 52.1298C20.68 48.4798 17.71 45.5098 14.06 45.5098C10.41 45.5098 7.44 48.4798 7.44 52.1298C7.44 55.7798 10.41 58.7398 14.06 58.7398C17.71 58.7398 20.68 55.7698 20.68 52.1298ZM9.93 52.1298C9.93 49.8498 11.78 47.9898 14.06 47.9898C16.34 47.9898 18.2 49.8398 18.2 52.1298C18.2 54.4198 16.35 56.2598 14.06 56.2598C11.77 56.2598 9.93 54.4098 9.93 52.1298Z" fill="#1A1A1A" stroke="#1A1A1A" stroke-width="1.25" stroke-miterlimit="10"/>
<path d="M60.1 47.3401V55.3001C60.1 55.9901 60.66 56.5401 61.34 56.5401H66.37C67.06 56.5401 67.61 55.9801 67.61 55.3001V47.3301C69.37 46.1901 70.47 44.1501 70.47 41.9301C70.47 38.2801 67.5 35.3101 63.85 35.3101C60.2 35.3101 57.23 38.2801 57.23 41.9301C57.23 44.1101 58.39 46.2501 60.09 47.3401H60.1ZM63.85 37.7901C66.13 37.7901 67.99 39.6401 67.99 41.9301C67.99 43.4801 67.15 44.8701 65.85 45.4701C65.41 45.6701 65.13 46.1101 65.13 46.5901V54.0501H62.58V46.5901C62.58 46.0901 62.28 45.6401 61.82 45.4501C60.64 44.9601 59.72 43.4101 59.72 41.9201C59.72 39.6401 61.57 37.7801 63.85 37.7801V37.7901Z" fill="#1A1A1A" stroke="#1A1A1A" stroke-width="1.25" stroke-miterlimit="10"/>
</g>
<defs>
<clipPath id="clip0_382_211">
<rect width="103.58" height="119.32" fill="white"/>
</clipPath>
</defs>
</svg>
