<svg width="96" height="73" viewBox="0 0 96 73" fill="none" xmlns="http://www.w3.org/2000/svg">
<g clip-path="url(#clip0_382_180)">
<path d="M94.6055 19.95L80.1223 16.8795V1.74422C80.1223 0.779674 79.3313 0 78.3527 0H1.76962C0.79103 0 0 0.779674 0 1.74422V52.2623C0 53.2268 0.79103 54.0065 1.76962 54.0065H8.0897L7.57594 56.6027C7.48624 57.0609 7.57594 57.5271 7.84506 57.9129C8.10601 58.2987 8.51376 58.564 8.97859 58.6524L84.1753 72.9678C84.2895 72.992 84.3955 73 84.5097 73C84.8603 73 85.2028 72.8955 85.5046 72.7026C85.896 72.4454 86.1651 72.0435 86.2548 71.5853L95.9755 21.9836C96.1549 21.0512 95.5515 20.1429 94.6136 19.95H94.6055ZM3.53925 3.48844H76.5831V18.2701V50.5181H3.53925V3.48844ZM83.107 69.2142L11.3925 55.5578L11.6942 54.0065H78.3527C79.3313 54.0065 80.1223 53.2268 80.1223 52.2623V20.4484L92.1672 23.0044L83.1152 69.2142H83.107Z" fill="black"/>
<path d="M25.3047 27.5136C20.1427 27.5136 15.9429 23.3741 15.9429 18.2861C15.9429 13.1981 20.1427 9.05859 25.3047 9.05859C30.4668 9.05859 34.6666 13.1981 34.6666 18.2861C34.6666 23.3741 30.4668 27.5136 25.3047 27.5136ZM25.3047 12.547C22.0917 12.547 19.4821 15.1192 19.4821 18.2861C19.4821 21.453 22.0917 24.0251 25.3047 24.0251C28.5178 24.0251 31.1274 21.453 31.1274 18.2861C31.1274 15.1192 28.5178 12.547 25.3047 12.547Z" fill="black"/>
<path d="M24.7258 44.1116C24.3751 44.1116 24.0326 44.0072 23.7309 43.8062L8.32618 33.4213C7.51884 32.8747 7.31496 31.7896 7.86135 30.9938C8.41588 30.1981 9.5168 29.9971 10.3241 30.5357L24.6524 40.1972L49.843 20.5446C50.4302 20.0784 51.2538 20.0382 51.898 20.4401L71.7635 32.939C72.5871 33.4534 72.8318 34.5385 72.3017 35.3504C71.7717 36.1622 70.6789 36.4033 69.8552 35.8809L51.0499 24.0491L25.8267 43.7339C25.5086 43.983 25.1172 44.1116 24.7258 44.1116Z" fill="black"/>
</g>
<defs>
<clipPath id="clip0_382_180">
<rect width="96" height="73" fill="white"/>
</clipPath>
</defs>
</svg>
